<?xml version="1.0" standalone="no"?>
<!DOCTYPE svg PUBLIC "-//W3C//DTD SVG 20010904//EN"
 "http://www.w3.org/TR/2001/REC-SVG-20010904/DTD/svg10.dtd">
<svg version="1.0" xmlns="http://www.w3.org/2000/svg"
 width="900.000000pt" height="900.000000pt" viewBox="0 0 900.000000 900.000000"
 preserveAspectRatio="xMidYMid meet">
<metadata>
Created by potrace 1.10, written by Peter Selinger 2001-2011
</metadata>
<g transform="translate(0.000000,900.000000) scale(0.100000,-0.100000)"
fill="#000000" stroke="none">
<path d="M643 8988 c2 -14 -76 -25 -190 -27 -34 0 -77 -7 -95 -15 -18 -8 -40
-17 -48 -21 -53 -21 -170 -124 -170 -149 0 -8 -7 -19 -15 -26 -8 -7 -15 -20
-15 -30 0 -10 -7 -23 -15 -30 -8 -7 -15 -25 -15 -40 0 -15 -7 -33 -15 -40 -8
-7 -15 -23 -15 -37 0 -13 -5 -34 -12 -46 -6 -12 -16 -51 -21 -87 -14 -89 -15
-7840 -1 -7930 6 -36 15 -75 22 -87 7 -12 12 -33 12 -46 0 -14 6 -30 14 -36 7
-6 16 -25 19 -41 7 -33 184 -220 209 -220 9 0 21 -7 28 -15 7 -8 22 -15 34
-15 11 -1 32 -7 46 -15 14 -8 41 -14 60 -15 20 0 41 -5 46 -10 12 -12 7518 -6
7816 7 135 5 201 12 210 21 6 6 27 12 46 12 19 0 46 6 60 14 15 7 53 26 86 41
32 15 73 41 91 59 36 36 115 187 115 220 0 11 7 39 15 61 10 29 14 89 15 217
0 184 3 208 26 208 12 0 14 564 14 3841 0 2422 -4 3838 -9 3834 -13 -7 -31 27
-31 57 0 13 -7 32 -15 42 -8 11 -15 30 -15 42 0 12 -7 27 -15 34 -8 7 -15 20
-15 29 0 9 -37 53 -83 96 -71 68 -92 83 -143 98 -33 9 -86 17 -118 17 -49 0
-59 3 -63 20 -5 20 -14 20 -3929 20 -3134 0 -3923 -3 -3921 -12z m4114 -418
c2 -80 10 -491 18 -915 9 -459 15 -1247 15 -1950 0 -679 5 -1220 10 -1275 5
-52 13 -135 16 -185 4 -49 13 -100 20 -112 8 -12 14 -33 14 -46 0 -14 7 -30
15 -37 8 -7 15 -20 15 -30 0 -10 7 -23 15 -30 8 -7 15 -19 15 -27 0 -8 14 -32
30 -53 17 -21 30 -42 30 -47 0 -4 20 -31 45 -60 25 -28 45 -55 45 -59 0 -14
72 -94 85 -94 7 0 49 -34 93 -75 44 -41 83 -75 87 -75 4 0 24 -13 45 -30 21
-16 42 -30 48 -30 5 0 15 -7 22 -15 7 -8 20 -15 30 -15 10 0 23 -7 30 -15 7
-8 25 -15 39 -15 15 0 36 -7 47 -15 10 -8 31 -15 45 -15 14 0 34 -7 45 -15 10
-8 41 -15 69 -15 28 0 60 -6 70 -14 20 -13 104 -26 175 -27 64 0 195 17 217
29 12 7 43 12 70 12 26 0 57 7 67 15 11 8 28 15 37 15 20 0 259 119 274 136 6
6 25 20 44 30 33 19 302 280 315 306 3 7 10 21 16 31 5 9 15 25 20 35 6 9 14
27 20 40 5 12 14 22 20 22 5 0 10 6 10 14 0 7 7 19 15 26 8 7 15 25 15 39 0
15 7 36 15 47 8 10 15 31 15 45 0 14 7 34 15 45 8 11 14 41 15 72 0 29 6 63
12 75 13 22 29 141 29 207 -1 71 -13 155 -27 175 -8 10 -14 42 -14 70 0 28 -7
59 -15 69 -8 11 -15 31 -15 45 0 14 -7 35 -15 45 -8 11 -15 32 -15 47 0 14 -7
32 -15 39 -8 7 -15 20 -15 30 0 10 -7 23 -15 30 -8 7 -15 17 -15 22 0 6 -13
27 -30 48 -16 21 -30 41 -30 45 0 4 -40 50 -90 102 -49 51 -90 100 -90 108 0
13 -79 85 -94 85 -4 0 -31 20 -59 45 -29 25 -59 45 -68 45 -9 0 -22 7 -29 15
-7 8 -20 15 -30 15 -10 0 -23 7 -30 15 -7 8 -20 15 -30 15 -10 0 -23 7 -30 15
-7 8 -24 15 -39 15 -14 0 -35 7 -45 15 -11 8 -41 15 -67 15 -25 0 -66 7 -89
15 -34 12 -103 15 -349 16 -187 0 -391 7 -525 17 l-219 17 -18 85 c-13 61 -18
131 -19 251 0 146 2 168 18 181 9 9 61 23 114 32 132 22 601 23 733 1 50 -8
140 -15 200 -15 69 -1 125 -6 150 -15 22 -8 65 -15 96 -15 33 0 63 -6 75 -15
10 -8 33 -15 50 -15 16 0 39 -7 50 -15 10 -8 26 -15 35 -15 9 0 22 -7 29 -15
7 -8 25 -15 39 -15 15 0 36 -7 47 -15 10 -8 26 -15 35 -15 9 0 22 -7 29 -15 7
-8 20 -15 30 -15 10 0 23 -7 30 -15 7 -8 19 -15 27 -15 8 0 32 -13 53 -30 21
-16 41 -30 45 -30 4 0 24 -13 45 -30 21 -16 43 -30 50 -30 15 0 330 -310 330
-324 0 -6 20 -34 45 -63 25 -28 45 -56 45 -61 0 -5 7 -15 15 -22 8 -7 15 -20
15 -30 0 -10 7 -23 15 -30 8 -7 15 -19 15 -27 0 -8 12 -30 26 -48 36 -47 64
-105 64 -131 0 -12 7 -27 15 -34 8 -7 15 -20 15 -29 0 -10 7 -26 15 -37 8 -10
15 -30 15 -44 0 -14 7 -36 15 -50 8 -14 15 -43 15 -65 0 -22 7 -51 15 -65 8
-14 14 -47 15 -75 0 -27 7 -72 15 -99 21 -68 21 -349 0 -426 -8 -30 -15 -85
-15 -121 0 -42 -5 -72 -15 -85 -8 -10 -15 -40 -15 -65 0 -25 -7 -54 -15 -65
-8 -10 -15 -30 -15 -44 0 -14 -7 -34 -15 -44 -8 -11 -15 -30 -15 -43 0 -13 -7
-26 -15 -29 -8 -4 -15 -17 -15 -30 0 -14 -7 -27 -15 -30 -8 -4 -15 -17 -15
-30 0 -14 -7 -27 -15 -30 -8 -4 -15 -16 -15 -28 0 -12 -13 -35 -30 -51 -16
-16 -30 -36 -30 -45 0 -9 -13 -29 -30 -45 -16 -16 -30 -36 -30 -45 0 -8 -34
-49 -75 -90 -41 -41 -75 -81 -75 -89 0 -20 -100 -121 -120 -121 -9 0 -42 -27
-75 -60 -33 -33 -66 -60 -75 -60 -9 0 -36 -20 -60 -45 -26 -26 -53 -45 -66
-45 -12 0 -24 -7 -28 -15 -3 -8 -16 -15 -30 -15 -13 0 -26 -7 -30 -15 -3 -8
-16 -15 -30 -15 -13 0 -26 -7 -30 -15 -3 -8 -16 -15 -30 -15 -13 0 -26 -7 -30
-15 -3 -8 -16 -15 -29 -15 -14 0 -30 -7 -37 -15 -7 -8 -27 -15 -44 -15 -17 0
-40 -7 -50 -15 -11 -8 -38 -15 -60 -15 -23 0 -50 -7 -60 -15 -12 -9 -43 -15
-75 -15 -31 -1 -83 -7 -116 -15 -84 -20 -399 -20 -475 0 -30 8 -77 15 -105 15
-27 0 -61 7 -75 15 -14 8 -38 15 -55 15 -16 0 -39 7 -49 15 -11 8 -31 15 -45
15 -14 0 -35 7 -45 15 -11 8 -27 15 -37 15 -9 0 -22 7 -29 15 -7 8 -23 15 -35
15 -13 0 -36 7 -52 14 -15 8 -35 17 -43 20 -20 8 -46 25 -91 59 -20 15 -40 27
-44 27 -4 0 -24 13 -45 30 -21 16 -41 30 -45 30 -4 0 -30 20 -58 45 -29 25
-57 45 -63 45 -15 0 -264 256 -264 272 0 18 -71 88 -89 88 -20 0 -91 -70 -91
-89 0 -20 -250 -271 -270 -271 -9 0 -42 -27 -75 -60 -36 -37 -68 -60 -81 -60
-12 0 -24 -7 -28 -15 -3 -8 -14 -15 -24 -15 -10 0 -31 -13 -47 -30 -16 -16
-39 -30 -51 -30 -12 0 -24 -7 -28 -15 -3 -8 -16 -15 -29 -15 -14 0 -30 -7 -37
-15 -7 -8 -27 -15 -45 -15 -20 0 -35 -6 -39 -15 -3 -8 -16 -15 -29 -15 -14 0
-30 -7 -37 -15 -7 -8 -27 -15 -44 -15 -18 0 -41 -7 -52 -15 -12 -9 -44 -15
-94 -15 -41 0 -122 -7 -180 -15 -58 -8 -184 -15 -281 -15 -120 0 -179 -4 -187
-12 -9 -9 -18 -9 -37 0 -16 8 -86 12 -183 13 -94 0 -201 7 -267 17 l-110 17
-11 80 c-7 44 -13 157 -14 250 l-3 170 229 17 c143 10 354 17 560 17 271 1
338 4 367 16 20 8 50 15 66 15 16 0 95 33 182 77 123 62 164 88 209 134 30 30
70 64 89 75 36 20 93 72 105 95 19 38 35 61 57 82 14 12 28 29 32 37 4 8 11
23 17 33 5 9 15 25 20 35 6 9 14 27 20 40 5 12 14 22 20 22 5 0 10 10 10 23 0
13 7 32 15 43 8 10 15 26 15 35 0 9 7 22 15 29 8 7 15 26 15 42 0 16 7 45 15
64 8 20 17 69 19 111 3 41 10 80 15 87 8 10 20 82 21 126 1 35 -17 121 -28
132 -7 7 -12 41 -12 78 -1 41 -6 72 -15 84 -8 11 -15 31 -15 45 0 14 -7 35
-15 45 -8 11 -15 32 -15 47 0 14 -7 32 -15 39 -8 7 -15 20 -15 30 0 10 -7 23
-15 30 -8 7 -15 20 -15 30 0 10 -7 23 -15 30 -8 7 -15 17 -15 22 0 5 -20 33
-45 61 -25 29 -45 57 -45 63 0 14 -256 264 -271 264 -6 0 -28 14 -49 30 -21
17 -45 30 -53 30 -8 0 -20 7 -27 15 -7 8 -20 15 -30 15 -10 0 -23 7 -30 15 -7
8 -24 15 -39 15 -14 0 -35 7 -45 15 -11 8 -34 15 -50 15 -17 0 -40 7 -50 15
-14 11 -46 15 -110 15 -51 0 -114 7 -146 16 -52 14 -61 14 -110 0 -30 -9 -90
-16 -134 -16 -55 -1 -87 -5 -100 -15 -11 -8 -39 -15 -62 -15 -28 0 -44 -5 -48
-15 -3 -8 -16 -15 -29 -15 -14 0 -30 -7 -37 -15 -7 -8 -27 -15 -45 -15 -20 0
-35 -6 -39 -15 -3 -8 -16 -15 -30 -15 -13 0 -26 -7 -30 -15 -3 -8 -14 -15 -24
-15 -10 0 -38 -20 -62 -45 -24 -25 -51 -45 -59 -45 -21 0 -181 -160 -181 -180
0 -9 -20 -36 -45 -60 -25 -24 -45 -52 -45 -62 0 -10 -7 -21 -15 -24 -8 -4 -15
-16 -15 -28 0 -12 -13 -35 -30 -51 -16 -16 -30 -38 -30 -49 0 -12 -7 -30 -15
-40 -8 -11 -15 -30 -15 -42 0 -13 -7 -27 -16 -32 -14 -8 -17 -34 -19 -178 -2
-93 -8 -193 -14 -223 -8 -38 -11 -504 -11 -1550 -1 -823 -5 -1620 -10 -1771
-5 -151 -12 -403 -16 -560 -4 -162 -11 -290 -17 -297 -13 -18 -98 -16 -121 2
-11 8 -34 15 -50 15 -17 1 -42 7 -56 15 -14 8 -39 14 -57 15 -18 0 -47 6 -65
14 -18 8 -40 17 -48 20 -8 3 -23 10 -32 16 -10 5 -26 15 -35 20 -10 6 -27 14
-39 19 -20 9 -21 16 -28 423 -4 227 -11 591 -16 808 -5 217 -10 901 -10 1520
0 981 -2 1133 -16 1190 -14 60 -14 72 2 155 10 50 23 95 31 101 9 8 14 45 17
114 2 56 9 107 15 113 6 6 11 24 11 39 0 16 7 45 15 65 8 19 15 45 15 57 0 12
7 31 15 42 8 10 15 30 15 42 0 13 6 36 14 50 8 15 17 34 20 42 3 8 10 22 15
30 5 8 12 22 15 30 3 8 10 22 15 30 5 8 12 22 15 30 3 8 10 23 16 33 5 9 15
25 20 35 6 9 14 27 20 40 5 12 14 22 19 22 5 0 12 8 15 18 11 30 32 61 57 85
14 12 28 29 32 37 22 43 42 67 157 181 69 69 141 134 160 145 19 10 46 31 60
46 14 14 54 41 90 59 36 19 70 39 75 45 6 6 25 19 43 28 17 9 45 23 61 31 16
8 37 15 46 15 9 0 30 7 46 15 16 8 42 22 58 30 16 8 40 15 53 15 12 1 34 7 48
15 14 8 42 14 63 15 21 0 54 7 74 15 19 8 59 15 88 15 28 0 74 7 101 15 68 21
325 21 384 0 24 -8 78 -15 124 -15 55 -1 87 -5 100 -15 11 -8 34 -15 51 -15
17 0 40 -7 51 -15 10 -8 31 -15 45 -15 14 0 34 -7 45 -15 10 -8 31 -15 45 -15
14 0 34 -7 45 -15 10 -8 26 -15 35 -15 9 0 22 -7 29 -15 7 -8 20 -15 30 -15
10 0 23 -7 30 -15 7 -8 19 -15 27 -15 8 0 32 -13 53 -30 21 -16 41 -30 45 -30
4 0 24 -13 45 -30 21 -16 42 -30 47 -30 6 0 40 -27 76 -61 82 -75 99 -75 110
1 9 60 9 72 2 235 -24 542 -35 1039 -35 1574 0 552 -2 629 -16 670 -16 45 -16
47 7 96 22 45 31 53 99 86 123 59 149 69 181 69 16 0 46 7 66 15 19 8 52 15
73 15 22 0 43 7 50 15 9 11 27 15 59 13 l46 -3 2 -145z"/>
</g>
</svg>
